<?xml version="1.0" standalone="no"?>
<!DOCTYPE svg PUBLIC "-//W3C//DTD SVG 20010904//EN"
 "http://www.w3.org/TR/2001/REC-SVG-20010904/DTD/svg10.dtd">
<svg version="1.0" xmlns="http://www.w3.org/2000/svg"
 width="800.000000pt" height="800.000000pt" viewBox="0 0 800.000000 800.000000"
 preserveAspectRatio="xMidYMid meet">
<metadata>
Created by potrace 1.14, written by Peter Selinger 2001-2017
</metadata>
<g transform="translate(0.000000,800.000000) scale(0.100000,-0.100000)"
fill="#000000" stroke="none">
<path d="M0 4000 l0 -4000 4000 0 4000 0 0 4000 0 4000 -4000 0 -4000 0 0
-4000z m4110 1870 l0 -110 -105 0 -105 0 0 110 0 110 105 0 105 0 0 -110z
m-1235 -320 l0 -175 -157 -3 -158 -3 0 -169 0 -170 160 0 160 0 0 -175 0 -175
-165 0 -165 0 0 175 0 175 -160 0 -160 0 0 175 0 175 160 0 160 0 0 168 c0 93
3 172 7 176 4 3 77 5 162 4 l156 -3 0 -175z m1655 -65 l0 -115 -105 0 -105 0
0 115 0 115 105 0 105 0 0 -115z"/>
</g>
</svg>
